inDegrees=no
num_controls=7
num_derivatives=13
num_iterations=53
num_multipliers=7
num_parameters=0
num_slacks=7
num_states=26
objective=0.471632
objective_accelerations=0.059545
objective_balance=0.000919
objective_effort=0.016585
objective_height=0.385317
objective_ligament=0.009266
solver_duration=840.234060
status=Solve_Succeeded
success=true
DataType=double
version=3
OpenSimVersion=4.5
endheader
time	/jointset/ground_pelvis/pelvis_tilt/value	/jointset/ground_pelvis/pelvis_tx/value	/jointset/ground_pelvis/pelvis_ty/value	/jointset/hip_l/hip_flexion_l/value	/jointset/hip_l/hip_adduction_l/value	/jointset/hip_l/hip_rotation_l/value	/jointset/back/lumbar_extension/value	/jointset/patellofemoral_l/patellar_flexion_l/value	/jointset/knee_l/knee_flexion_l/value	/jointset/knee_l/knee_adduction_l/value	/jointset/knee_l/knee_rotation_l/value	/jointset/ankle_l/ankle_angle_l/value	/jointset/subtalar_l/subtalar_angle_l/value	/jointset/ground_pelvis/pelvis_tilt/speed	/jointset/ground_pelvis/pelvis_tx/speed	/jointset/ground_pelvis/pelvis_ty/speed	/jointset/hip_l/hip_flexion_l/speed	/jointset/hip_l/hip_adduction_l/speed	/jointset/hip_l/hip_rotation_l/speed	/jointset/back/lumbar_extension/speed	/jointset/patellofemoral_l/patellar_flexion_l/speed	/jointset/knee_l/knee_flexion_l/speed	/jointset/knee_l/knee_adduction_l/speed	/jointset/knee_l/knee_rotation_l/speed	/jointset/ankle_l/ankle_angle_l/speed	/jointset/subtalar_l/subtalar_angle_l/speed	/forceset/tau_hip_flexion_l	/forceset/tau_hip_adduction_l	/forceset/tau_hip_rotation_l	/forceset/tau_knee_flexion_l	/forceset/tau_ankle_angle_l	/forceset/tau_subtalar_angle_l	/forceset/tau_lumbar_extension	lambda_cid13_p0	lambda_cid13_p1	lambda_cid13_p2	lambda_cid13_p3	lambda_cid13_p4	lambda_cid13_p5	lambda_cid14_p0	/jointset/ground_pelvis/pelvis_tilt/accel	/jointset/ground_pelvis/pelvis_tx/accel	/jointset/ground_pelvis/pelvis_ty/accel	/jointset/hip_l/hip_flexion_l/accel	/jointset/hip_l/hip_adduction_l/accel	/jointset/hip_l/hip_rotation_l/accel	/jointset/back/lumbar_extension/accel	/jointset/patellofemoral_l/patellar_flexion_l/accel	/jointset/knee_l/knee_flexion_l/accel	/jointset/knee_l/knee_adduction_l/accel	/jointset/knee_l/knee_rotation_l/accel	/jointset/ankle_l/ankle_angle_l/accel	/jointset/subtalar_l/subtalar_angle_l/accel	gamma_cid13_p0	gamma_cid13_p1	gamma_cid13_p2	gamma_cid13_p3	gamma_cid13_p4	gamma_cid13_p5	gamma_cid14_p0
1	-0.6034218421223358	-0.05946357218870581	0.6311698501192351	1.771058858312312	-0.3404075159905705	0.09641439832308669	-0.4362204420653805	1.263977056160523	1.263977056160524	0.01125900745192801	-0.1744667619123983	0.2469079152576917	0.1640625805029074	-0.1445575893992679	0.003186150258407148	0.03109669651735345	0.01735013858218137	-0.001910700589806685	-0.06734016982897333	-0.001414044962057626	-0.1626846645795854	-0.1626846645795853	0.006457915489889841	-0.001139002284420384	-0.04736811115787002	-0.02093457299968761	-0.2936608752311179	0.05842367673141408	-0.00663686431838281	-0.2049316690243226	0.02516831272151324	-0.01838349355510657	0.2362898496491945	-24.53849251157633	16.98286914055033	-8.359822327682011	-0.4552655716815462	-534.9631234580478	-33.43688812817953	-0.02546239072966344	2.171816573765352	0.4704319814668133	1.731003133080724	-6.73638787087361	-0.2698228519902722	-1.451251811042827	-0.0613127365520191	-4.621939754880558	-4.621939754880558	-0.519819907727137	-0.01672174283195494	-0.4058026121757766	-0.4873802476072535	-8.974682619492651e-09	-7.702639210622488e-08	1.152945548610383e-08	1.03560187586854e-09	-8.721319059390117e-09	-2.196528790550028e-08	-1.117477686734577e-08
1.01	-0.6047597775772324	-0.05940820402674599	0.6315671215974372	1.770896877349778	-0.3404392564603442	0.09566935635434699	-0.4362363830039255	1.262119447408466	1.262119447408454	0.01129804258508592	-0.1744773644073195	0.246413972113104	0.1638299742766602	-0.1230323423830701	0.007894179274842997	0.04834586214889252	-0.04972359450179144	-0.004421435427890147	-0.08165055370246682	-0.001752362483958655	-0.2088252554448239	-0.2088252554448236	0.001354058023428459	-0.0009639885934588511	-0.05142656741569165	-0.02556736161747267	-0.293986875826099	0.05850792374213494	-0.006674309133752059	-0.2040356681973781	0.02488665973190434	-0.01826351422554015	0.2364597678066906	-24.5921152185311	16.90608921806603	-8.308674769492489	-0.5825622750947954	-534.7652105665471	-33.40245478361366	-0.02547407143984966	2.142451691707373	0.4719922304571169	1.720110138611346	-6.689456740953591	-0.2393008638630462	-1.418296436177847	-0.01682421920246504	-4.608341385215204	-4.608341385215205	-0.5049429842784127	0.03723983952383682	-0.4067801509124397	-0.4483172401258806	-1.010165054307996e-08	-9.51575095173643e-08	7.653326308842982e-09	-3.46707139812658e-09	-1.292491972341501e-08	-2.120961175388251e-08	-1.401693131386583e-08
1.02	-0.6058825459767381	-0.05930555480087693	0.6321365321040392	1.770064840913624	-0.3404956246913309	0.09478173759475644	-0.4362550537094853	1.259800788221182	1.259800788221174	0.01128618428001345	-0.1744856913824602	0.2458792618022702	0.1635516223499829	-0.1015241783204547	0.01264236304025567	0.06552450219731244	-0.1166609561375405	-0.006836252831811603	-0.09585552800297512	-0.001959998373570521	-0.2548947516248469	-0.2548947516248465	-0.003720772169944785	-0.0006838983239539275	-0.05552154440659384	-0.03008371308572816	-0.2943128764212072	0.05859217075288996	-0.006711753948728055	-0.2031396673703962	0.02460500674233063	-0.01814353489592155	0.2366296859640413	-24.65060327810686	16.82940348705621	-8.256676590615983	-0.7149594822959294	-534.6772058967045	-33.36480702272592	-0.02548203275024188	2.168399983048851	0.4784629312621935	1.716898016456904	-6.709113581228858	-0.2506393651578411	-1.43016989644575	-0.0351764100934813	-4.607720817837493	-4.6077208178375	-0.5140144531095004	0.004293572876799538	-0.4131067587918597	-0.4640928177012865	-1.090361322543694e-08	-1.147617918127955e-07	3.142126246859962e-09	-9.032055698625344e-09	-1.699042517652478e-08	-2.065139356308191e-08	-1.702205388345232e-08
1.03	-0.6067903665750241	-0.05915521381279179	0.6328772841203752	1.768564345133838	-0.3405756711954985	0.09375251692742453	-0.436274917877805	1.257021897660957	1.257021897660964	0.01122379480791673	-0.1744908181331015	0.2453033530837879	0.163228652993942	-0.08004885110003854	0.01743337660759292	0.08260488398732196	-0.1833912678082193	-0.009157560827645329	-0.1099814471930971	-0.001966779331930739	-0.3008609262117755	-0.3008609262117744	-0.008742207310183141	-0.0003366875756114987	-0.0596727295806308	-0.03449362897906636	-0.2944828751826881	0.058752982022787	-0.006746441231042745	-0.2019756091239699	0.02414187716302255	-0.01798321944878683	0.236726640070982	-24.74738863261844	16.73014160969359	-8.187642290573281	-0.8130983067635341	-534.3136268200773	-33.31397160208788	-0.02549695120792619	2.135760522538647	0.4805489187765925	1.700451462377344	-6.647952624712784	-0.2205445462870188	-1.402750742769728	0.02347945683511929	-4.587696623907936	-4.587696623907815	-0.4939948574546384	0.05064836888857179	-0.4180115078964607	-0.4269398869249464	-1.170225952778136e-08	-1.343811064029644e-07	-1.375554130273287e-09	-1.460787990755783e-08	-2.105452149482928e-08	-2.00951902494325e-08	-2.00288393930701e-08
